<svg xmlns="http://www.w3.org/2000/svg" width="100%" height="auto" viewBox="165.406 261.0 712.594 264.781" version="1.1">
	<path d="M 640 388.500 L 640 516 661 516 L 682 516 682 388.500 L 682 261 661 261 L 640 261 640 388.500 M 267.500 282.661 C 239.007 287.803, 211.233 304.160, 193.564 326.206 C 159.146 369.148, 156.024 425.661, 185.611 470.167 C 191.892 479.616, 205.714 494.011, 215.480 501.276 C 250.202 527.106, 297.827 533.027, 338.739 516.600 L 347.290 513.167 352.219 516.557 C 354.929 518.421, 358.801 520.475, 360.823 521.121 C 364.354 522.249, 406.318 523.552, 415.843 522.829 L 420.185 522.500 396.411 501 C 383.335 489.175, 367.154 474.518, 360.453 468.428 C 353.753 462.338, 346.522 456.488, 344.385 455.428 C 340.915 453.706, 337.882 453.474, 316 453.254 L 291.500 453.008 305 465.908 C 312.425 473.002, 318.213 479.101, 317.861 479.459 C 316.468 480.880, 298.063 483.974, 291 483.974 C 275.673 483.974, 257.825 478.461, 245.256 469.844 C 224.253 455.445, 210.997 430.261, 210.860 404.500 C 210.739 381.887, 217.756 363.776, 232.830 347.798 C 264.387 314.345, 317.389 314.100, 348.697 347.263 C 369.060 368.833, 376.216 400.172, 367.132 428 C 365.427 433.225, 362.449 440.110, 360.516 443.300 C 358.582 446.490, 357 449.502, 357 449.992 C 357 451.030, 387.639 479, 388.775 479 C 390.078 479, 399.780 463.900, 403.875 455.500 C 426.850 408.363, 415.958 351.331, 376.978 314.661 C 359.083 297.827, 337.771 287.106, 313.140 282.547 C 302.650 280.606, 278.557 280.666, 267.500 282.661 M 776.404 351.031 C 743.471 354.453, 716.598 377.734, 706.369 411.703 C 704.082 419.301, 703.708 422.408, 703.627 434.500 C 703.524 449.871, 705.094 457.636, 710.894 470.426 C 718.865 488.006, 733.937 503.109, 751.421 511.037 C 762.660 516.133, 769.236 517.408, 784.500 517.452 C 796.462 517.486, 799.588 517.151, 805.975 515.149 C 815.739 512.088, 822.190 508.813, 829.250 503.332 L 835 498.867 835.089 502.684 C 835.138 504.783, 835.104 508.637, 835.015 511.250 L 834.852 516 856.426 516 L 878 516 878 435 L 878 354 856.925 354 L 835.850 354 836.554 363 C 836.941 367.950, 836.926 372, 836.519 372 C 836.113 372, 833.242 369.680, 830.140 366.844 C 817.401 355.198, 796.238 348.971, 776.404 351.031 M 448.391 355.423 C 448.091 356.206, 448.037 380.619, 448.272 409.673 C 448.647 456.012, 448.917 463.360, 450.472 469.500 C 456.521 493.388, 471.707 509.117, 495.017 515.638 C 505.120 518.464, 526.238 518.214, 535.500 515.158 C 544.355 512.237, 553.194 507.342, 559.266 501.997 L 564 497.830 564 506.915 L 564 516 585.500 516 L 607 516 607 434.980 L 607 353.960 585.750 354.230 L 564.500 354.500 564 402.500 C 563.536 447.053, 563.361 450.823, 561.570 455 C 555.725 468.629, 546.807 476.260, 533.521 479.003 C 516.275 482.563, 499.952 474.383, 493.758 459.079 C 491.534 453.585, 491.496 452.741, 491.206 403.750 L 490.913 354 469.925 354 C 452.694 354, 448.839 354.255, 448.391 355.423 M 780.335 389.423 C 766.970 392.664, 755.629 401.901, 749.305 414.696 C 746.066 421.252, 745.554 423.293, 745.177 431.171 C 744.059 454.574, 757.247 472.662, 779.693 478.508 C 813.154 487.224, 844.222 456.146, 835.505 422.680 C 833.317 414.282, 830.447 409.292, 823.852 402.424 C 812.404 390.502, 796.041 385.614, 780.335 389.423" stroke="none" fill="#221F19" fill-rule="evenodd"/>
</svg>